<svg xmlns="http://www.w3.org/2000/svg" xmlns:xlink="http://www.w3.org/1999/xlink" version="1.1" data-diagram-type="CLASS" style="width:160px;height:117px;background:#FFFFFF;" width="160px" height="117px" viewBox="0 0 160 117" zoomAndPan="magnify" preserveAspectRatio="none" contentStyleType="text/css"><?plantuml 1.2026.8?><defs/><g font-family="sans-serif" lengthAdjust="spacing"><!--class Tarea--><g class="entity" data-qualified-name="Tarea" id="ent0001" data-source-line="2"><rect x="7" y="7" width="140.864" height="97.465" fill="#F1F1F1" style="stroke:#181818;stroke-width:0.5;" rx="2.5" ry="2.5"/><ellipse cx="54.26" cy="23" rx="11" ry="11" fill="#ADD1B2" style="stroke:#181818;stroke-width:1;"/><path d="M56.733,29.143 Q56.152,29.442 55.513,29.591 Q54.874,29.741 54.168,29.741 Q51.662,29.741 50.342,28.089 Q49.022,26.437 49.022,23.316 Q49.022,20.187 50.342,18.535 Q51.662,16.883 54.168,16.883 Q54.874,16.883 55.521,17.032 Q56.169,17.182 56.733,17.48 L56.733,20.203 Q56.103,19.622 55.509,19.352 Q54.916,19.083 54.285,19.083 Q52.94,19.083 52.255,20.149 Q51.57,21.216 51.57,23.316 Q51.57,25.408 52.255,26.474 Q52.94,27.541 54.285,27.541 Q54.916,27.541 55.509,27.271 Q56.103,27.001 56.733,26.42 Z " fill="#000"/><text x="74.76" y="28.291" fill="#000" font-size="14" textLength="37.844">Tarea</text><line x1="8" y1="39" x2="146.864" y2="39" style="stroke:#181818;stroke-width:0.5;"/><g data-visibility-modifier="PUBLIC_FIELD"><ellipse cx="18" cy="52.744" rx="3" ry="3" fill="none" style="stroke:#038048;stroke-width:1;"/></g><text x="27" y="56.535" fill="#000" font-size="14" textLength="62.815">titulo: str</text><g data-visibility-modifier="PRIVATE_FIELD"><rect x="15" y="66.232" width="6" height="6" fill="none" style="stroke:#C82930;stroke-width:1;"/></g><text x="27" y="73.023" fill="#000" font-size="14" textLength="72.276">estado: str</text><line x1="8" y1="79.977" x2="146.864" y2="79.977" style="stroke:#181818;stroke-width:0.5;"/><g data-visibility-modifier="PUBLIC_METHOD"><ellipse cx="18" cy="93.721" rx="3" ry="3" fill="#84BE84" style="stroke:#038048;stroke-width:1;"/></g><text x="27" y="97.512" fill="#000" font-size="14" textLength="114.864">completar(): void</text></g><?plantuml-src Iyv9B2vM24aiIarKgEPI009jXPBCajASV2k5uf8Yi8YkGcfnIM8AaWWNL6LoVcv1Jcf9Of66ffL2MNvc2bSj5m00?></g></svg>