<svg xmlns="http://www.w3.org/2000/svg" xmlns:xlink="http://www.w3.org/1999/xlink" version="1.1" data-diagram-type="SEQUENCE" style="width:172px;height:160px;background:#FFFFFF;" width="172px" height="160px" viewBox="0 0 172 160" zoomAndPan="magnify" preserveAspectRatio="none" contentStyleType="text/css"><?plantuml 1.2026.8?><defs/><g font-family="sans-serif" lengthAdjust="spacing"><g><title>Alice</title><rect x="29.862" y="41.488" width="8" height="76.621" fill="#000" fill-opacity="0"/><line x1="33.362" y1="41.488" x2="33.362" y2="118.109" style="stroke:#181818;stroke-width:0.5;stroke-dasharray:5,5;"/></g><g><title>Bob</title><rect x="137.879" y="41.488" width="8" height="76.621" fill="#000" fill-opacity="0"/><line x1="141.379" y1="41.488" x2="141.379" y2="118.109" style="stroke:#181818;stroke-width:0.5;stroke-dasharray:5,5;"/></g><rect x="10" y="10" width="46.724" height="30.488" fill="#E2E2F0" style="stroke:#181818;stroke-width:0.5;" rx="2.5" ry="2.5"/><text x="17" y="30.535" fill="#000" font-size="14" textLength="32.724">Alice</text><rect x="121.647" y="10" width="39.464" height="30.488" fill="#E2E2F0" style="stroke:#181818;stroke-width:0.5;" rx="2.5" ry="2.5"/><text x="128.647" y="30.535" fill="#000" font-size="14" textLength="25.464">Bob</text><rect x="10" y="118.109" width="46.724" height="30.488" fill="#E2E2F0" style="stroke:#181818;stroke-width:0.5;" rx="2.5" ry="2.5"/><text x="17" y="138.645" fill="#000" font-size="14" textLength="32.724">Alice</text><rect x="121.647" y="118.109" width="39.464" height="30.488" fill="#E2E2F0" style="stroke:#181818;stroke-width:0.5;" rx="2.5" ry="2.5"/><text x="128.647" y="138.645" fill="#000" font-size="14" textLength="25.464">Bob</text><polygon points="129.379,66.799,139.379,70.799,129.379,74.799,133.379,70.799" fill="#181818" style="stroke:#181818;stroke-width:1;stroke-linejoin:miter;stroke-miterlimit:10;"/><line x1="33.362" y1="70.799" x2="135.379" y2="70.799" style="stroke:#181818;stroke-width:1;"/><text x="40.362" y="66.057" fill="#000" font-size="13" textLength="28.476">Hola</text><polygon points="44.362,96.109,34.362,100.109,44.362,104.109,40.362,100.109" fill="#181818" style="stroke:#181818;stroke-width:1;stroke-linejoin:miter;stroke-miterlimit:10;"/><line x1="38.362" y1="100.109" x2="140.379" y2="100.109" style="stroke:#181818;stroke-width:1;stroke-dasharray:2,2;"/><text x="50.362" y="95.367" fill="#000" font-size="13" textLength="84.018">Hola también</text><?plantuml-src Syp9J4vLqBLJSCfFibBmoCz9v0Ao57I18euWAOYOGabYRbBcuPLv0000?></g></svg>